<mxfile modified="2023-10-30T10:32:11.074Z" host="Electron" agent="Mozilla/5.0 (Windows NT 10.0; Win64; x64) AppleWebKit/537.36 (KHTML, like Gecko) draw.io/22.0.0 Chrome/114.0.5735.289 Electron/25.8.3 Safari/537.36" etag="jQp-4v7dkEMGIzJw9mXh" version="22.0.0" type="device" pages="2">
  <diagram name="Stangler Fig Pattern" id="hzknWhPts28RMi1WoUTo">
    <mxGraphModel dx="2573" dy="1641" grid="1" gridSize="4" guides="1" tooltips="1" connect="1" arrows="1" fold="1" page="1" pageScale="1" pageWidth="1169" pageHeight="827" math="0" shadow="0">
      <root>
        <mxCell id="SsUzJg_eBKT3t_W9BXZ2-0" />
        <mxCell id="SsUzJg_eBKT3t_W9BXZ2-1" parent="SsUzJg_eBKT3t_W9BXZ2-0" />
        <mxCell id="SsUzJg_eBKT3t_W9BXZ2-2" value="Stangler Fig Pattern" style="text;html=1;align=center;verticalAlign=middle;resizable=0;points=[];autosize=1;strokeColor=none;fillColor=none;fontSize=20;fontFamily=Architects Daughter;fontColor=#1A1A1A;" parent="SsUzJg_eBKT3t_W9BXZ2-1" vertex="1">
          <mxGeometry x="-102" y="-812" width="212" height="40" as="geometry" />
        </mxCell>
        <mxCell id="SsUzJg_eBKT3t_W9BXZ2-3" value="" style="html=1;shadow=0;dashed=0;align=center;verticalAlign=middle;shape=mxgraph.arrows2.arrow;dy=0.6;dx=40;notch=0;sketch=1;hachureGap=4;jiggle=2;curveFitting=1;fontFamily=Architects Daughter;fontSource=https%3A%2F%2Ffonts.googleapis.com%2Fcss%3Ffamily%3DArchitects%2BDaughter;fontSize=20;fillColor=#f5ab50;" parent="SsUzJg_eBKT3t_W9BXZ2-1" vertex="1">
          <mxGeometry x="-80" y="-420" width="176" height="56" as="geometry" />
        </mxCell>
        <mxCell id="SsUzJg_eBKT3t_W9BXZ2-4" value="AWS Cloud" style="points=[[0,0],[0.25,0],[0.5,0],[0.75,0],[1,0],[1,0.25],[1,0.5],[1,0.75],[1,1],[0.75,1],[0.5,1],[0.25,1],[0,1],[0,0.75],[0,0.5],[0,0.25]];outlineConnect=0;gradientColor=none;html=1;whiteSpace=wrap;fontSize=12;fontStyle=0;container=1;pointerEvents=0;collapsible=0;recursiveResize=0;shape=mxgraph.aws4.group;grIcon=mxgraph.aws4.group_aws_cloud_alt;strokeColor=#232F3E;fillColor=none;verticalAlign=top;align=left;spacingLeft=30;fontColor=#232F3E;dashed=0;hachureGap=4;fontFamily=Architects Daughter;fontSource=https%3A%2F%2Ffonts.googleapis.com%2Fcss%3Ffamily%3DArchitects%2BDaughter;" parent="SsUzJg_eBKT3t_W9BXZ2-1" vertex="1">
          <mxGeometry x="96" y="-656" width="500" height="592" as="geometry" />
        </mxCell>
        <mxCell id="SsUzJg_eBKT3t_W9BXZ2-5" value="" style="sketch=0;points=[[0,0,0],[0.25,0,0],[0.5,0,0],[0.75,0,0],[1,0,0],[0,1,0],[0.25,1,0],[0.5,1,0],[0.75,1,0],[1,1,0],[0,0.25,0],[0,0.5,0],[0,0.75,0],[1,0.25,0],[1,0.5,0],[1,0.75,0]];outlineConnect=0;fontColor=#232F3E;fillColor=#E7157B;strokeColor=#ffffff;dashed=0;verticalLabelPosition=bottom;verticalAlign=top;align=center;html=1;fontSize=12;fontStyle=0;aspect=fixed;shape=mxgraph.aws4.resourceIcon;resIcon=mxgraph.aws4.api_gateway;" parent="SsUzJg_eBKT3t_W9BXZ2-4" vertex="1">
          <mxGeometry x="228" y="52" width="78" height="78" as="geometry" />
        </mxCell>
        <mxCell id="SsUzJg_eBKT3t_W9BXZ2-6" value="" style="sketch=0;points=[[0,0,0],[0.25,0,0],[0.5,0,0],[0.75,0,0],[1,0,0],[0,1,0],[0.25,1,0],[0.5,1,0],[0.75,1,0],[1,1,0],[0,0.25,0],[0,0.5,0],[0,0.75,0],[1,0.25,0],[1,0.5,0],[1,0.75,0]];outlineConnect=0;fontColor=#232F3E;fillColor=#ED7100;strokeColor=#ffffff;dashed=0;verticalLabelPosition=bottom;verticalAlign=top;align=center;html=1;fontSize=12;fontStyle=0;aspect=fixed;shape=mxgraph.aws4.resourceIcon;resIcon=mxgraph.aws4.lambda;" parent="SsUzJg_eBKT3t_W9BXZ2-4" vertex="1">
          <mxGeometry x="348" y="304" width="78" height="78" as="geometry" />
        </mxCell>
        <mxCell id="SsUzJg_eBKT3t_W9BXZ2-8" value="" style="sketch=0;outlineConnect=0;fontColor=#232F3E;gradientColor=none;fillColor=#ED7100;strokeColor=none;dashed=0;verticalLabelPosition=bottom;verticalAlign=top;align=center;html=1;fontSize=12;fontStyle=0;aspect=fixed;pointerEvents=1;shape=mxgraph.aws4.instance2;" parent="SsUzJg_eBKT3t_W9BXZ2-4" vertex="1">
          <mxGeometry x="28" y="304" width="240" height="240" as="geometry" />
        </mxCell>
        <mxCell id="SsUzJg_eBKT3t_W9BXZ2-9" value="&lt;font data-font-src=&quot;https://fonts.googleapis.com/css?family=Architects+Daughter&quot; face=&quot;Architects Daughter&quot;&gt;Data&lt;/font&gt;" style="rounded=1;whiteSpace=wrap;html=1;" parent="SsUzJg_eBKT3t_W9BXZ2-4" vertex="1">
          <mxGeometry x="72" y="352" width="72" height="36" as="geometry" />
        </mxCell>
        <mxCell id="SsUzJg_eBKT3t_W9BXZ2-10" value="&lt;font data-font-src=&quot;https://fonts.googleapis.com/css?family=Architects+Daughter&quot; face=&quot;Architects Daughter&quot;&gt;Lending&lt;/font&gt;" style="rounded=1;whiteSpace=wrap;html=1;" parent="SsUzJg_eBKT3t_W9BXZ2-4" vertex="1">
          <mxGeometry x="156" y="352" width="72" height="36" as="geometry" />
        </mxCell>
        <mxCell id="SsUzJg_eBKT3t_W9BXZ2-11" value="&lt;font data-font-src=&quot;https://fonts.googleapis.com/css?family=Architects+Daughter&quot; face=&quot;Architects Daughter&quot;&gt;Notifications&lt;/font&gt;" style="rounded=1;whiteSpace=wrap;html=1;fillColor=default;fontColor=default;strokeColor=default;" parent="SsUzJg_eBKT3t_W9BXZ2-4" vertex="1">
          <mxGeometry x="90" y="416" width="116" height="36" as="geometry" />
        </mxCell>
        <mxCell id="SsUzJg_eBKT3t_W9BXZ2-12" value="" style="endArrow=none;html=1;rounded=0;labelBackgroundColor=default;hachureGap=4;strokeColor=#6c8ebf;align=center;verticalAlign=middle;fontFamily=Architects Daughter;fontSource=https%3A%2F%2Ffonts.googleapis.com%2Fcss%3Ffamily%3DArchitects%2BDaughter;fontSize=16;fontColor=default;shape=connector;fillColor=#dae8fc;sketch=1;curveFitting=1;jiggle=2;" parent="SsUzJg_eBKT3t_W9BXZ2-4" edge="1">
          <mxGeometry width="50" height="50" relative="1" as="geometry">
            <mxPoint x="107" y="404" as="sourcePoint" />
            <mxPoint x="193" y="404" as="targetPoint" />
          </mxGeometry>
        </mxCell>
        <mxCell id="SsUzJg_eBKT3t_W9BXZ2-13" value="" style="endArrow=none;html=1;rounded=0;labelBackgroundColor=default;hachureGap=4;strokeColor=#6c8ebf;align=center;verticalAlign=middle;fontFamily=Architects Daughter;fontSource=https%3A%2F%2Ffonts.googleapis.com%2Fcss%3Ffamily%3DArchitects%2BDaughter;fontSize=16;fontColor=default;shape=connector;fillColor=#dae8fc;sketch=1;curveFitting=1;jiggle=2;" parent="SsUzJg_eBKT3t_W9BXZ2-4" edge="1">
          <mxGeometry width="50" height="50" relative="1" as="geometry">
            <mxPoint x="191.65999999999997" y="388" as="sourcePoint" />
            <mxPoint x="191.65999999999997" y="404" as="targetPoint" />
          </mxGeometry>
        </mxCell>
        <mxCell id="SsUzJg_eBKT3t_W9BXZ2-14" value="" style="endArrow=none;html=1;rounded=0;labelBackgroundColor=default;hachureGap=4;strokeColor=#6c8ebf;align=center;verticalAlign=middle;fontFamily=Architects Daughter;fontSource=https%3A%2F%2Ffonts.googleapis.com%2Fcss%3Ffamily%3DArchitects%2BDaughter;fontSize=16;fontColor=default;shape=connector;fillColor=#dae8fc;sketch=1;curveFitting=1;jiggle=2;" parent="SsUzJg_eBKT3t_W9BXZ2-4" edge="1">
          <mxGeometry width="50" height="50" relative="1" as="geometry">
            <mxPoint x="107.65999999999997" y="388" as="sourcePoint" />
            <mxPoint x="107.65999999999997" y="404" as="targetPoint" />
          </mxGeometry>
        </mxCell>
        <mxCell id="SsUzJg_eBKT3t_W9BXZ2-15" value="" style="endArrow=classic;html=1;rounded=0;labelBackgroundColor=default;hachureGap=4;strokeColor=#6c8ebf;align=center;verticalAlign=middle;fontFamily=Architects Daughter;fontSource=https%3A%2F%2Ffonts.googleapis.com%2Fcss%3Ffamily%3DArchitects%2BDaughter;fontSize=16;fontColor=default;shape=connector;fillColor=#dae8fc;strokeWidth=2;sketch=1;curveFitting=1;jiggle=2;" parent="SsUzJg_eBKT3t_W9BXZ2-4" edge="1">
          <mxGeometry width="50" height="50" relative="1" as="geometry">
            <mxPoint x="147.8" y="404" as="sourcePoint" />
            <mxPoint x="147.8" y="416" as="targetPoint" />
          </mxGeometry>
        </mxCell>
        <mxCell id="SsUzJg_eBKT3t_W9BXZ2-22" value="&lt;font face=&quot;Architects Daughter&quot;&gt;/Payments&lt;/font&gt;" style="text;html=1;align=center;verticalAlign=middle;resizable=0;points=[];autosize=1;strokeColor=none;fillColor=none;" parent="SsUzJg_eBKT3t_W9BXZ2-4" vertex="1">
          <mxGeometry x="352" y="382" width="80" height="28" as="geometry" />
        </mxCell>
        <mxCell id="SsUzJg_eBKT3t_W9BXZ2-28" value="&lt;font style=&quot;font-size: 16px;&quot; data-font-src=&quot;https://fonts.googleapis.com/css?family=Architects+Daughter&quot; face=&quot;Architects Daughter&quot;&gt;&lt;b&gt;Monolith&lt;/b&gt;&lt;/font&gt;" style="text;html=1;align=center;verticalAlign=middle;resizable=0;points=[];autosize=1;strokeColor=none;fillColor=none;" parent="SsUzJg_eBKT3t_W9BXZ2-4" vertex="1">
          <mxGeometry x="108" y="552" width="80" height="32" as="geometry" />
        </mxCell>
        <mxCell id="SsUzJg_eBKT3t_W9BXZ2-20" value="" style="endArrow=classic;html=1;rounded=0;labelBackgroundColor=default;hachureGap=4;strokeColor=#6c8ebf;align=center;verticalAlign=middle;fontFamily=Architects Daughter;fontSource=https%3A%2F%2Ffonts.googleapis.com%2Fcss%3Ffamily%3DArchitects%2BDaughter;fontSize=16;fontColor=default;shape=connector;fillColor=#dae8fc;strokeWidth=1;sketch=1;curveFitting=1;jiggle=2;dashed=1;" parent="SsUzJg_eBKT3t_W9BXZ2-4" edge="1">
          <mxGeometry width="50" height="50" relative="1" as="geometry">
            <mxPoint x="384" y="191" as="sourcePoint" />
            <mxPoint x="384" y="295" as="targetPoint" />
          </mxGeometry>
        </mxCell>
        <mxCell id="szZ9K8TdTXnCq4wtNc4G-0" value="" style="endArrow=classic;html=1;rounded=0;labelBackgroundColor=default;hachureGap=4;strokeColor=#6c8ebf;align=center;verticalAlign=middle;fontFamily=Architects Daughter;fontSource=https%3A%2F%2Ffonts.googleapis.com%2Fcss%3Ffamily%3DArchitects%2BDaughter;fontSize=16;fontColor=default;shape=connector;fillColor=#dae8fc;strokeWidth=1;sketch=1;curveFitting=1;jiggle=2;" parent="SsUzJg_eBKT3t_W9BXZ2-4" edge="1">
          <mxGeometry width="50" height="50" relative="1" as="geometry">
            <mxPoint x="144" y="191" as="sourcePoint" />
            <mxPoint x="144" y="295" as="targetPoint" />
          </mxGeometry>
        </mxCell>
        <mxCell id="SsUzJg_eBKT3t_W9BXZ2-23" value="" style="endArrow=none;html=1;rounded=0;labelBackgroundColor=default;hachureGap=4;strokeColor=#6c8ebf;align=center;verticalAlign=middle;fontFamily=Architects Daughter;fontSource=https%3A%2F%2Ffonts.googleapis.com%2Fcss%3Ffamily%3DArchitects%2BDaughter;fontSize=16;fontColor=default;shape=connector;fillColor=#dae8fc;sketch=1;curveFitting=1;jiggle=2;" parent="SsUzJg_eBKT3t_W9BXZ2-4" edge="1">
          <mxGeometry width="50" height="50" relative="1" as="geometry">
            <mxPoint x="144" y="192" as="sourcePoint" />
            <mxPoint x="240" y="192" as="targetPoint" />
          </mxGeometry>
        </mxCell>
        <mxCell id="szZ9K8TdTXnCq4wtNc4G-1" value="" style="endArrow=none;html=1;rounded=0;labelBackgroundColor=default;hachureGap=4;strokeColor=#6c8ebf;align=center;verticalAlign=middle;fontFamily=Architects Daughter;fontSource=https%3A%2F%2Ffonts.googleapis.com%2Fcss%3Ffamily%3DArchitects%2BDaughter;fontSize=16;fontColor=default;shape=connector;fillColor=#dae8fc;sketch=1;curveFitting=1;jiggle=2;" parent="SsUzJg_eBKT3t_W9BXZ2-4" edge="1">
          <mxGeometry width="50" height="50" relative="1" as="geometry">
            <mxPoint x="292" y="192" as="sourcePoint" />
            <mxPoint x="386" y="192" as="targetPoint" />
          </mxGeometry>
        </mxCell>
        <mxCell id="SsUzJg_eBKT3t_W9BXZ2-24" value="" style="endArrow=none;html=1;rounded=0;labelBackgroundColor=default;hachureGap=4;strokeColor=#6c8ebf;align=center;verticalAlign=middle;fontFamily=Architects Daughter;fontSource=https%3A%2F%2Ffonts.googleapis.com%2Fcss%3Ffamily%3DArchitects%2BDaughter;fontSize=16;fontColor=default;shape=connector;fillColor=#dae8fc;sketch=1;curveFitting=1;jiggle=2;entryX=0.779;entryY=1.066;entryDx=0;entryDy=0;entryPerimeter=0;" parent="SsUzJg_eBKT3t_W9BXZ2-4" target="szZ9K8TdTXnCq4wtNc4G-3" edge="1">
          <mxGeometry width="50" height="50" relative="1" as="geometry">
            <mxPoint x="292" y="192" as="sourcePoint" />
            <mxPoint x="292" y="140" as="targetPoint" />
          </mxGeometry>
        </mxCell>
        <mxCell id="szZ9K8TdTXnCq4wtNc4G-2" value="" style="endArrow=none;html=1;rounded=0;labelBackgroundColor=default;hachureGap=4;strokeColor=#6c8ebf;align=center;verticalAlign=middle;fontFamily=Architects Daughter;fontSource=https%3A%2F%2Ffonts.googleapis.com%2Fcss%3Ffamily%3DArchitects%2BDaughter;fontSize=16;fontColor=default;shape=connector;fillColor=#dae8fc;sketch=1;curveFitting=1;jiggle=2;entryX=0.215;entryY=1.049;entryDx=0;entryDy=0;entryPerimeter=0;" parent="SsUzJg_eBKT3t_W9BXZ2-4" target="szZ9K8TdTXnCq4wtNc4G-3" edge="1">
          <mxGeometry width="50" height="50" relative="1" as="geometry">
            <mxPoint x="240" y="192" as="sourcePoint" />
            <mxPoint x="240" y="140" as="targetPoint" />
          </mxGeometry>
        </mxCell>
        <mxCell id="szZ9K8TdTXnCq4wtNc4G-3" value="&lt;font data-font-src=&quot;https://fonts.googleapis.com/css?family=Architects+Daughter&quot; face=&quot;Architects Daughter&quot;&gt;Api Gateway&lt;/font&gt;" style="text;html=1;align=center;verticalAlign=middle;resizable=0;points=[];autosize=1;strokeColor=none;fillColor=none;" parent="SsUzJg_eBKT3t_W9BXZ2-4" vertex="1">
          <mxGeometry x="221" y="124" width="92" height="28" as="geometry" />
        </mxCell>
        <mxCell id="szZ9K8TdTXnCq4wtNc4G-4" value="&lt;font color=&quot;#bababa&quot; data-font-src=&quot;https://fonts.googleapis.com/css?family=Architects+Daughter&quot; face=&quot;Architects Daughter&quot;&gt;Payments&lt;/font&gt;" style="rounded=1;whiteSpace=wrap;html=1;fillColor=#DEDEDE;fontColor=default;strokeColor=default;dashed=1;" parent="SsUzJg_eBKT3t_W9BXZ2-4" vertex="1">
          <mxGeometry x="90" y="460" width="116" height="36" as="geometry" />
        </mxCell>
        <mxCell id="szZ9K8TdTXnCq4wtNc4G-5" value="" style="endArrow=classic;html=1;rounded=0;labelBackgroundColor=default;hachureGap=4;strokeColor=#6c8ebf;align=center;verticalAlign=middle;fontFamily=Architects Daughter;fontSource=https%3A%2F%2Ffonts.googleapis.com%2Fcss%3Ffamily%3DArchitects%2BDaughter;fontSize=16;fontColor=default;shape=connector;fillColor=#dae8fc;strokeWidth=1;sketch=1;curveFitting=1;jiggle=2;" parent="SsUzJg_eBKT3t_W9BXZ2-4" edge="1">
          <mxGeometry width="50" height="50" relative="1" as="geometry">
            <mxPoint x="267" y="-28" as="sourcePoint" />
            <mxPoint x="266.5" y="52" as="targetPoint" />
          </mxGeometry>
        </mxCell>
        <mxCell id="SsUzJg_eBKT3t_W9BXZ2-31" value="AWS Cloud" style="points=[[0,0],[0.25,0],[0.5,0],[0.75,0],[1,0],[1,0.25],[1,0.5],[1,0.75],[1,1],[0.75,1],[0.5,1],[0.25,1],[0,1],[0,0.75],[0,0.5],[0,0.25]];outlineConnect=0;gradientColor=none;html=1;whiteSpace=wrap;fontSize=12;fontStyle=0;container=1;pointerEvents=0;collapsible=0;recursiveResize=0;shape=mxgraph.aws4.group;grIcon=mxgraph.aws4.group_aws_cloud_alt;strokeColor=#232F3E;fillColor=none;verticalAlign=top;align=left;spacingLeft=30;fontColor=#232F3E;dashed=0;hachureGap=4;fontFamily=Architects Daughter;fontSource=https%3A%2F%2Ffonts.googleapis.com%2Fcss%3Ffamily%3DArchitects%2BDaughter;" parent="SsUzJg_eBKT3t_W9BXZ2-1" vertex="1">
          <mxGeometry x="-480" y="-656" width="400" height="592" as="geometry" />
        </mxCell>
        <mxCell id="SsUzJg_eBKT3t_W9BXZ2-35" value="" style="sketch=0;outlineConnect=0;fontColor=#232F3E;gradientColor=none;fillColor=#ED7100;strokeColor=none;dashed=0;verticalLabelPosition=bottom;verticalAlign=top;align=center;html=1;fontSize=12;fontStyle=0;aspect=fixed;pointerEvents=1;shape=mxgraph.aws4.instance2;" parent="SsUzJg_eBKT3t_W9BXZ2-31" vertex="1">
          <mxGeometry x="76" y="304" width="240" height="240" as="geometry" />
        </mxCell>
        <mxCell id="SsUzJg_eBKT3t_W9BXZ2-38" value="&lt;font data-font-src=&quot;https://fonts.googleapis.com/css?family=Architects+Daughter&quot; face=&quot;Architects Daughter&quot;&gt;Data&lt;/font&gt;" style="rounded=1;whiteSpace=wrap;html=1;" parent="SsUzJg_eBKT3t_W9BXZ2-31" vertex="1">
          <mxGeometry x="116" y="352" width="72" height="36" as="geometry" />
        </mxCell>
        <mxCell id="SsUzJg_eBKT3t_W9BXZ2-39" value="&lt;font data-font-src=&quot;https://fonts.googleapis.com/css?family=Architects+Daughter&quot; face=&quot;Architects Daughter&quot;&gt;Lending&lt;/font&gt;" style="rounded=1;whiteSpace=wrap;html=1;" parent="SsUzJg_eBKT3t_W9BXZ2-31" vertex="1">
          <mxGeometry x="200" y="352" width="72" height="36" as="geometry" />
        </mxCell>
        <mxCell id="SsUzJg_eBKT3t_W9BXZ2-40" value="&lt;font data-font-src=&quot;https://fonts.googleapis.com/css?family=Architects+Daughter&quot; face=&quot;Architects Daughter&quot;&gt;Notifications&lt;/font&gt;" style="rounded=1;whiteSpace=wrap;html=1;fillColor=default;fontColor=default;strokeColor=default;" parent="SsUzJg_eBKT3t_W9BXZ2-31" vertex="1">
          <mxGeometry x="136" y="420" width="116" height="36" as="geometry" />
        </mxCell>
        <mxCell id="SsUzJg_eBKT3t_W9BXZ2-41" value="" style="endArrow=none;html=1;rounded=0;labelBackgroundColor=default;hachureGap=4;strokeColor=#6c8ebf;align=center;verticalAlign=middle;fontFamily=Architects Daughter;fontSource=https%3A%2F%2Ffonts.googleapis.com%2Fcss%3Ffamily%3DArchitects%2BDaughter;fontSize=16;fontColor=default;shape=connector;fillColor=#dae8fc;sketch=1;curveFitting=1;jiggle=2;" parent="SsUzJg_eBKT3t_W9BXZ2-31" edge="1">
          <mxGeometry width="50" height="50" relative="1" as="geometry">
            <mxPoint x="150" y="408" as="sourcePoint" />
            <mxPoint x="236" y="408" as="targetPoint" />
          </mxGeometry>
        </mxCell>
        <mxCell id="SsUzJg_eBKT3t_W9BXZ2-42" value="" style="endArrow=none;html=1;rounded=0;labelBackgroundColor=default;hachureGap=4;strokeColor=#6c8ebf;align=center;verticalAlign=middle;fontFamily=Architects Daughter;fontSource=https%3A%2F%2Ffonts.googleapis.com%2Fcss%3Ffamily%3DArchitects%2BDaughter;fontSize=16;fontColor=default;shape=connector;fillColor=#dae8fc;sketch=1;curveFitting=1;jiggle=2;" parent="SsUzJg_eBKT3t_W9BXZ2-31" edge="1">
          <mxGeometry width="50" height="50" relative="1" as="geometry">
            <mxPoint x="235.76" y="392" as="sourcePoint" />
            <mxPoint x="235.76" y="408" as="targetPoint" />
          </mxGeometry>
        </mxCell>
        <mxCell id="SsUzJg_eBKT3t_W9BXZ2-43" value="" style="endArrow=none;html=1;rounded=0;labelBackgroundColor=default;hachureGap=4;strokeColor=#6c8ebf;align=center;verticalAlign=middle;fontFamily=Architects Daughter;fontSource=https%3A%2F%2Ffonts.googleapis.com%2Fcss%3Ffamily%3DArchitects%2BDaughter;fontSize=16;fontColor=default;shape=connector;fillColor=#dae8fc;sketch=1;curveFitting=1;jiggle=2;" parent="SsUzJg_eBKT3t_W9BXZ2-31" edge="1">
          <mxGeometry width="50" height="50" relative="1" as="geometry">
            <mxPoint x="151.76" y="392" as="sourcePoint" />
            <mxPoint x="151.76" y="408" as="targetPoint" />
          </mxGeometry>
        </mxCell>
        <mxCell id="SsUzJg_eBKT3t_W9BXZ2-44" value="" style="endArrow=classic;html=1;rounded=0;labelBackgroundColor=default;hachureGap=4;strokeColor=#6c8ebf;align=center;verticalAlign=middle;fontFamily=Architects Daughter;fontSource=https%3A%2F%2Ffonts.googleapis.com%2Fcss%3Ffamily%3DArchitects%2BDaughter;fontSize=16;fontColor=default;shape=connector;fillColor=#dae8fc;strokeWidth=2;sketch=1;curveFitting=1;jiggle=2;" parent="SsUzJg_eBKT3t_W9BXZ2-31" edge="1">
          <mxGeometry width="50" height="50" relative="1" as="geometry">
            <mxPoint x="191.76" y="408" as="sourcePoint" />
            <mxPoint x="191.76" y="420" as="targetPoint" />
          </mxGeometry>
        </mxCell>
        <mxCell id="Laycw_QfnZ7Q5YjPeNCT-0" value="&lt;font data-font-src=&quot;https://fonts.googleapis.com/css?family=Architects+Daughter&quot; face=&quot;Architects Daughter&quot;&gt;Payments&lt;/font&gt;" style="rounded=1;whiteSpace=wrap;html=1;fillColor=default;fontColor=default;strokeColor=default;" parent="SsUzJg_eBKT3t_W9BXZ2-31" vertex="1">
          <mxGeometry x="136" y="464" width="116" height="36" as="geometry" />
        </mxCell>
        <mxCell id="Laycw_QfnZ7Q5YjPeNCT-1" value="Stangler Facade/&lt;br&gt;Proxy Layer" style="rounded=1;whiteSpace=wrap;html=1;" parent="SsUzJg_eBKT3t_W9BXZ2-31" vertex="1">
          <mxGeometry x="140" y="88" width="120" height="60" as="geometry" />
        </mxCell>
        <mxCell id="SsUzJg_eBKT3t_W9BXZ2-54" value="" style="endArrow=classic;html=1;rounded=0;labelBackgroundColor=default;hachureGap=4;strokeColor=#6c8ebf;align=center;verticalAlign=middle;fontFamily=Architects Daughter;fontSource=https%3A%2F%2Ffonts.googleapis.com%2Fcss%3Ffamily%3DArchitects%2BDaughter;fontSize=16;fontColor=default;shape=connector;fillColor=#dae8fc;strokeWidth=1;sketch=1;curveFitting=1;jiggle=2;" parent="SsUzJg_eBKT3t_W9BXZ2-31" target="SsUzJg_eBKT3t_W9BXZ2-35" edge="1">
          <mxGeometry width="50" height="50" relative="1" as="geometry">
            <mxPoint x="199.5" y="148" as="sourcePoint" />
            <mxPoint x="199.5" y="324" as="targetPoint" />
          </mxGeometry>
        </mxCell>
        <mxCell id="Laycw_QfnZ7Q5YjPeNCT-2" value="" style="endArrow=classic;html=1;rounded=0;labelBackgroundColor=default;hachureGap=4;strokeColor=#6c8ebf;align=center;verticalAlign=middle;fontFamily=Architects Daughter;fontSource=https%3A%2F%2Ffonts.googleapis.com%2Fcss%3Ffamily%3DArchitects%2BDaughter;fontSize=16;fontColor=default;shape=connector;fillColor=#dae8fc;strokeWidth=1;sketch=1;curveFitting=1;jiggle=2;" parent="SsUzJg_eBKT3t_W9BXZ2-31" edge="1">
          <mxGeometry width="50" height="50" relative="1" as="geometry">
            <mxPoint x="200" y="-40" as="sourcePoint" />
            <mxPoint x="199.5" y="88" as="targetPoint" />
          </mxGeometry>
        </mxCell>
        <mxCell id="SsUzJg_eBKT3t_W9BXZ2-36" value="&lt;font style=&quot;font-size: 16px;&quot; data-font-src=&quot;https://fonts.googleapis.com/css?family=Architects+Daughter&quot; face=&quot;Architects Daughter&quot;&gt;&lt;b&gt;Monolith&lt;/b&gt;&lt;/font&gt;" style="text;html=1;align=center;verticalAlign=middle;resizable=0;points=[];autosize=1;strokeColor=none;fillColor=none;" parent="SsUzJg_eBKT3t_W9BXZ2-31" vertex="1">
          <mxGeometry x="156" y="544" width="80" height="32" as="geometry" />
        </mxCell>
        <mxCell id="Laycw_QfnZ7Q5YjPeNCT-4" value="" style="sketch=0;outlineConnect=0;fontColor=#232F3E;gradientColor=none;fillColor=#f8c78c;strokeColor=none;dashed=0;verticalLabelPosition=bottom;verticalAlign=top;align=center;html=1;fontSize=12;fontStyle=0;aspect=fixed;pointerEvents=1;shape=mxgraph.aws4.users;" parent="SsUzJg_eBKT3t_W9BXZ2-1" vertex="1">
          <mxGeometry x="-319" y="-780" width="78" height="78" as="geometry" />
        </mxCell>
        <mxCell id="szZ9K8TdTXnCq4wtNc4G-6" value="" style="sketch=0;outlineConnect=0;fontColor=#232F3E;gradientColor=none;fillColor=#f8c78c;strokeColor=none;dashed=0;verticalLabelPosition=bottom;verticalAlign=top;align=center;html=1;fontSize=12;fontStyle=0;aspect=fixed;pointerEvents=1;shape=mxgraph.aws4.users;" parent="SsUzJg_eBKT3t_W9BXZ2-1" vertex="1">
          <mxGeometry x="324" y="-764" width="78" height="78" as="geometry" />
        </mxCell>
      </root>
    </mxGraphModel>
  </diagram>
  <diagram id="Ht1M8jgEwFfnCIfOTk4-" name="Anticorruption Layer">
    <mxGraphModel dx="2573" dy="1641" grid="1" gridSize="4" guides="1" tooltips="1" connect="1" arrows="1" fold="1" page="1" pageScale="1" pageWidth="1169" pageHeight="827" math="0" shadow="0">
      <root>
        <mxCell id="0" />
        <mxCell id="1" parent="0" />
        <mxCell id="eYxBuY7Py7PClH6O-nrH-38" value="Anticorruption Layer Pattern" style="text;html=1;align=center;verticalAlign=middle;resizable=0;points=[];autosize=1;strokeColor=none;fillColor=none;fontSize=20;fontFamily=Architects Daughter;fontColor=#1A1A1A;" parent="1" vertex="1">
          <mxGeometry x="-146" y="-812" width="300" height="40" as="geometry" />
        </mxCell>
        <mxCell id="fPEKX6Ttl3wAnktyUxPx-3" value="" style="html=1;shadow=0;dashed=0;align=center;verticalAlign=middle;shape=mxgraph.arrows2.arrow;dy=0.6;dx=40;notch=0;sketch=1;hachureGap=4;jiggle=2;curveFitting=1;fontFamily=Architects Daughter;fontSource=https%3A%2F%2Ffonts.googleapis.com%2Fcss%3Ffamily%3DArchitects%2BDaughter;fontSize=20;fillColor=#f5ab50;" parent="1" vertex="1">
          <mxGeometry x="-80" y="-420" width="176" height="56" as="geometry" />
        </mxCell>
        <mxCell id="fPEKX6Ttl3wAnktyUxPx-5" value="AWS Cloud" style="points=[[0,0],[0.25,0],[0.5,0],[0.75,0],[1,0],[1,0.25],[1,0.5],[1,0.75],[1,1],[0.75,1],[0.5,1],[0.25,1],[0,1],[0,0.75],[0,0.5],[0,0.25]];outlineConnect=0;gradientColor=none;html=1;whiteSpace=wrap;fontSize=12;fontStyle=0;container=1;pointerEvents=0;collapsible=0;recursiveResize=0;shape=mxgraph.aws4.group;grIcon=mxgraph.aws4.group_aws_cloud_alt;strokeColor=#232F3E;fillColor=none;verticalAlign=top;align=left;spacingLeft=30;fontColor=#232F3E;dashed=0;hachureGap=4;fontFamily=Architects Daughter;fontSource=https%3A%2F%2Ffonts.googleapis.com%2Fcss%3Ffamily%3DArchitects%2BDaughter;" parent="1" vertex="1">
          <mxGeometry x="96" y="-716" width="584" height="648" as="geometry" />
        </mxCell>
        <mxCell id="fG_CdD1IKfEeDCYnEVIt-26" value="" style="sketch=0;points=[[0,0,0],[0.25,0,0],[0.5,0,0],[0.75,0,0],[1,0,0],[0,1,0],[0.25,1,0],[0.5,1,0],[0.75,1,0],[1,1,0],[0,0.25,0],[0,0.5,0],[0,0.75,0],[1,0.25,0],[1,0.5,0],[1,0.75,0]];outlineConnect=0;fontColor=#232F3E;fillColor=#E7157B;strokeColor=#ffffff;dashed=0;verticalLabelPosition=bottom;verticalAlign=top;align=center;html=1;fontSize=12;fontStyle=0;aspect=fixed;shape=mxgraph.aws4.resourceIcon;resIcon=mxgraph.aws4.api_gateway;" parent="fPEKX6Ttl3wAnktyUxPx-5" vertex="1">
          <mxGeometry x="22" y="272" width="78" height="78" as="geometry" />
        </mxCell>
        <mxCell id="fG_CdD1IKfEeDCYnEVIt-27" value="" style="sketch=0;points=[[0,0,0],[0.25,0,0],[0.5,0,0],[0.75,0,0],[1,0,0],[0,1,0],[0.25,1,0],[0.5,1,0],[0.75,1,0],[1,1,0],[0,0.25,0],[0,0.5,0],[0,0.75,0],[1,0.25,0],[1,0.5,0],[1,0.75,0]];outlineConnect=0;fontColor=#232F3E;fillColor=#ED7100;strokeColor=#ffffff;dashed=0;verticalLabelPosition=bottom;verticalAlign=top;align=center;html=1;fontSize=12;fontStyle=0;aspect=fixed;shape=mxgraph.aws4.resourceIcon;resIcon=mxgraph.aws4.lambda;" parent="fPEKX6Ttl3wAnktyUxPx-5" vertex="1">
          <mxGeometry x="322" y="192" width="78" height="78" as="geometry" />
        </mxCell>
        <mxCell id="fG_CdD1IKfEeDCYnEVIt-28" value="" style="sketch=0;points=[[0,0,0],[0.25,0,0],[0.5,0,0],[0.75,0,0],[1,0,0],[0,1,0],[0.25,1,0],[0.5,1,0],[0.75,1,0],[1,1,0],[0,0.25,0],[0,0.5,0],[0,0.75,0],[1,0.25,0],[1,0.5,0],[1,0.75,0]];outlineConnect=0;fontColor=#232F3E;fillColor=#ED7100;strokeColor=#ffffff;dashed=0;verticalLabelPosition=bottom;verticalAlign=top;align=center;html=1;fontSize=12;fontStyle=0;aspect=fixed;shape=mxgraph.aws4.resourceIcon;resIcon=mxgraph.aws4.lambda;" parent="fPEKX6Ttl3wAnktyUxPx-5" vertex="1">
          <mxGeometry x="322" y="32" width="78" height="78" as="geometry" />
        </mxCell>
        <mxCell id="fG_CdD1IKfEeDCYnEVIt-29" value="" style="sketch=0;outlineConnect=0;fontColor=#232F3E;gradientColor=none;fillColor=#ED7100;strokeColor=none;dashed=0;verticalLabelPosition=bottom;verticalAlign=top;align=center;html=1;fontSize=12;fontStyle=0;aspect=fixed;pointerEvents=1;shape=mxgraph.aws4.instance2;" parent="fPEKX6Ttl3wAnktyUxPx-5" vertex="1">
          <mxGeometry x="322" y="364" width="240" height="240" as="geometry" />
        </mxCell>
        <mxCell id="fG_CdD1IKfEeDCYnEVIt-30" value="&lt;font data-font-src=&quot;https://fonts.googleapis.com/css?family=Architects+Daughter&quot; face=&quot;Architects Daughter&quot;&gt;Data&lt;/font&gt;" style="rounded=1;whiteSpace=wrap;html=1;" parent="fPEKX6Ttl3wAnktyUxPx-5" vertex="1">
          <mxGeometry x="366" y="412" width="72" height="36" as="geometry" />
        </mxCell>
        <mxCell id="fG_CdD1IKfEeDCYnEVIt-31" value="&lt;font data-font-src=&quot;https://fonts.googleapis.com/css?family=Architects+Daughter&quot; face=&quot;Architects Daughter&quot;&gt;Lending&lt;/font&gt;" style="rounded=1;whiteSpace=wrap;html=1;" parent="fPEKX6Ttl3wAnktyUxPx-5" vertex="1">
          <mxGeometry x="450" y="412" width="72" height="36" as="geometry" />
        </mxCell>
        <mxCell id="fG_CdD1IKfEeDCYnEVIt-32" value="&lt;font color=&quot;#bababa&quot; data-font-src=&quot;https://fonts.googleapis.com/css?family=Architects+Daughter&quot; face=&quot;Architects Daughter&quot;&gt;Notifications&lt;/font&gt;" style="rounded=1;whiteSpace=wrap;html=1;fillColor=#f5f5f5;fontColor=#333333;strokeColor=#666666;" parent="fPEKX6Ttl3wAnktyUxPx-5" vertex="1">
          <mxGeometry x="384" y="476" width="116" height="36" as="geometry" />
        </mxCell>
        <mxCell id="fG_CdD1IKfEeDCYnEVIt-33" value="" style="endArrow=none;html=1;rounded=0;labelBackgroundColor=default;hachureGap=4;strokeColor=#6c8ebf;align=center;verticalAlign=middle;fontFamily=Architects Daughter;fontSource=https%3A%2F%2Ffonts.googleapis.com%2Fcss%3Ffamily%3DArchitects%2BDaughter;fontSize=16;fontColor=default;shape=connector;fillColor=#dae8fc;sketch=1;curveFitting=1;jiggle=2;" parent="fPEKX6Ttl3wAnktyUxPx-5" edge="1">
          <mxGeometry width="50" height="50" relative="1" as="geometry">
            <mxPoint x="401" y="464" as="sourcePoint" />
            <mxPoint x="487" y="464" as="targetPoint" />
          </mxGeometry>
        </mxCell>
        <mxCell id="fG_CdD1IKfEeDCYnEVIt-34" value="" style="endArrow=none;html=1;rounded=0;labelBackgroundColor=default;hachureGap=4;strokeColor=#6c8ebf;align=center;verticalAlign=middle;fontFamily=Architects Daughter;fontSource=https%3A%2F%2Ffonts.googleapis.com%2Fcss%3Ffamily%3DArchitects%2BDaughter;fontSize=16;fontColor=default;shape=connector;fillColor=#dae8fc;sketch=1;curveFitting=1;jiggle=2;" parent="fPEKX6Ttl3wAnktyUxPx-5" edge="1">
          <mxGeometry width="50" height="50" relative="1" as="geometry">
            <mxPoint x="485.65999999999997" y="448" as="sourcePoint" />
            <mxPoint x="485.65999999999997" y="464" as="targetPoint" />
          </mxGeometry>
        </mxCell>
        <mxCell id="fG_CdD1IKfEeDCYnEVIt-35" value="" style="endArrow=none;html=1;rounded=0;labelBackgroundColor=default;hachureGap=4;strokeColor=#6c8ebf;align=center;verticalAlign=middle;fontFamily=Architects Daughter;fontSource=https%3A%2F%2Ffonts.googleapis.com%2Fcss%3Ffamily%3DArchitects%2BDaughter;fontSize=16;fontColor=default;shape=connector;fillColor=#dae8fc;sketch=1;curveFitting=1;jiggle=2;" parent="fPEKX6Ttl3wAnktyUxPx-5" edge="1">
          <mxGeometry width="50" height="50" relative="1" as="geometry">
            <mxPoint x="401.65999999999997" y="448" as="sourcePoint" />
            <mxPoint x="401.65999999999997" y="464" as="targetPoint" />
          </mxGeometry>
        </mxCell>
        <mxCell id="fG_CdD1IKfEeDCYnEVIt-36" value="" style="endArrow=classic;html=1;rounded=0;labelBackgroundColor=default;hachureGap=4;strokeColor=#6c8ebf;align=center;verticalAlign=middle;fontFamily=Architects Daughter;fontSource=https%3A%2F%2Ffonts.googleapis.com%2Fcss%3Ffamily%3DArchitects%2BDaughter;fontSize=16;fontColor=default;shape=connector;fillColor=#dae8fc;strokeWidth=2;sketch=1;curveFitting=1;jiggle=2;" parent="fPEKX6Ttl3wAnktyUxPx-5" edge="1">
          <mxGeometry width="50" height="50" relative="1" as="geometry">
            <mxPoint x="441.8" y="464" as="sourcePoint" />
            <mxPoint x="441.8" y="476" as="targetPoint" />
          </mxGeometry>
        </mxCell>
        <mxCell id="fG_CdD1IKfEeDCYnEVIt-37" value="" style="endArrow=none;html=1;rounded=0;labelBackgroundColor=default;hachureGap=4;strokeColor=#6c8ebf;align=center;verticalAlign=middle;fontFamily=Architects Daughter;fontSource=https%3A%2F%2Ffonts.googleapis.com%2Fcss%3Ffamily%3DArchitects%2BDaughter;fontSize=16;fontColor=default;shape=connector;fillColor=#dae8fc;sketch=1;curveFitting=1;jiggle=2;" parent="fPEKX6Ttl3wAnktyUxPx-5" edge="1">
          <mxGeometry width="50" height="50" relative="1" as="geometry">
            <mxPoint x="100" y="300" as="sourcePoint" />
            <mxPoint x="186" y="300" as="targetPoint" />
          </mxGeometry>
        </mxCell>
        <mxCell id="fG_CdD1IKfEeDCYnEVIt-38" value="" style="endArrow=none;html=1;rounded=0;labelBackgroundColor=default;hachureGap=4;strokeColor=#6c8ebf;align=center;verticalAlign=middle;fontFamily=Architects Daughter;fontSource=https%3A%2F%2Ffonts.googleapis.com%2Fcss%3Ffamily%3DArchitects%2BDaughter;fontSize=16;fontColor=default;shape=connector;fillColor=#dae8fc;sketch=1;curveFitting=1;jiggle=2;" parent="fPEKX6Ttl3wAnktyUxPx-5" edge="1">
          <mxGeometry width="50" height="50" relative="1" as="geometry">
            <mxPoint x="186" y="300" as="sourcePoint" />
            <mxPoint x="186" y="232" as="targetPoint" />
          </mxGeometry>
        </mxCell>
        <mxCell id="fG_CdD1IKfEeDCYnEVIt-39" value="" style="endArrow=classic;html=1;rounded=0;labelBackgroundColor=default;hachureGap=4;strokeColor=#6c8ebf;align=center;verticalAlign=middle;fontFamily=Architects Daughter;fontSource=https%3A%2F%2Ffonts.googleapis.com%2Fcss%3Ffamily%3DArchitects%2BDaughter;fontSize=16;fontColor=default;shape=connector;fillColor=#dae8fc;strokeWidth=1;sketch=1;curveFitting=1;jiggle=2;entryX=0;entryY=0.5;entryDx=0;entryDy=0;entryPerimeter=0;" parent="fPEKX6Ttl3wAnktyUxPx-5" target="fG_CdD1IKfEeDCYnEVIt-27" edge="1">
          <mxGeometry width="50" height="50" relative="1" as="geometry">
            <mxPoint x="186" y="230.93" as="sourcePoint" />
            <mxPoint x="307.65999999999997" y="230.5" as="targetPoint" />
          </mxGeometry>
        </mxCell>
        <mxCell id="fG_CdD1IKfEeDCYnEVIt-40" value="" style="endArrow=none;html=1;rounded=0;labelBackgroundColor=default;hachureGap=4;strokeColor=#6c8ebf;align=center;verticalAlign=middle;fontFamily=Architects Daughter;fontSource=https%3A%2F%2Ffonts.googleapis.com%2Fcss%3Ffamily%3DArchitects%2BDaughter;fontSize=16;fontColor=default;shape=connector;fillColor=#dae8fc;sketch=1;curveFitting=1;jiggle=2;dashed=1;" parent="fPEKX6Ttl3wAnktyUxPx-5" edge="1">
          <mxGeometry width="50" height="50" relative="1" as="geometry">
            <mxPoint x="60.710000000000036" y="270" as="sourcePoint" />
            <mxPoint x="61" y="72" as="targetPoint" />
          </mxGeometry>
        </mxCell>
        <mxCell id="fG_CdD1IKfEeDCYnEVIt-41" value="" style="endArrow=classic;html=1;rounded=0;labelBackgroundColor=default;hachureGap=4;strokeColor=#6c8ebf;align=center;verticalAlign=middle;fontFamily=Architects Daughter;fontSource=https%3A%2F%2Ffonts.googleapis.com%2Fcss%3Ffamily%3DArchitects%2BDaughter;fontSize=16;fontColor=default;shape=connector;fillColor=#dae8fc;strokeWidth=1;sketch=1;curveFitting=1;jiggle=2;dashed=1;" parent="fPEKX6Ttl3wAnktyUxPx-5" edge="1">
          <mxGeometry width="50" height="50" relative="1" as="geometry">
            <mxPoint x="62" y="70.83000000000004" as="sourcePoint" />
            <mxPoint x="322" y="70.83000000000004" as="targetPoint" />
          </mxGeometry>
        </mxCell>
        <mxCell id="fG_CdD1IKfEeDCYnEVIt-42" value="&lt;font face=&quot;Architects Daughter&quot;&gt;Notifications&lt;/font&gt;" style="text;html=1;align=center;verticalAlign=middle;resizable=0;points=[];autosize=1;strokeColor=none;fillColor=none;" parent="fPEKX6Ttl3wAnktyUxPx-5" vertex="1">
          <mxGeometry x="315" y="108" width="92" height="28" as="geometry" />
        </mxCell>
        <mxCell id="fG_CdD1IKfEeDCYnEVIt-43" value="&lt;font face=&quot;Architects Daughter&quot;&gt;/Payments&lt;/font&gt;" style="text;html=1;align=center;verticalAlign=middle;resizable=0;points=[];autosize=1;strokeColor=none;fillColor=none;" parent="fPEKX6Ttl3wAnktyUxPx-5" vertex="1">
          <mxGeometry x="322" y="272" width="80" height="28" as="geometry" />
        </mxCell>
        <mxCell id="fG_CdD1IKfEeDCYnEVIt-44" value="" style="endArrow=none;html=1;rounded=0;labelBackgroundColor=default;hachureGap=4;strokeColor=#6c8ebf;align=center;verticalAlign=middle;fontFamily=Architects Daughter;fontSource=https%3A%2F%2Ffonts.googleapis.com%2Fcss%3Ffamily%3DArchitects%2BDaughter;fontSize=16;fontColor=default;shape=connector;fillColor=#dae8fc;sketch=1;curveFitting=1;jiggle=2;" parent="fPEKX6Ttl3wAnktyUxPx-5" edge="1">
          <mxGeometry width="50" height="50" relative="1" as="geometry">
            <mxPoint x="100" y="324" as="sourcePoint" />
            <mxPoint x="186" y="324" as="targetPoint" />
          </mxGeometry>
        </mxCell>
        <mxCell id="fG_CdD1IKfEeDCYnEVIt-45" value="" style="endArrow=none;html=1;rounded=0;labelBackgroundColor=default;hachureGap=4;strokeColor=#6c8ebf;align=center;verticalAlign=middle;fontFamily=Architects Daughter;fontSource=https%3A%2F%2Ffonts.googleapis.com%2Fcss%3Ffamily%3DArchitects%2BDaughter;fontSize=16;fontColor=default;shape=connector;fillColor=#dae8fc;sketch=1;curveFitting=1;jiggle=2;" parent="fPEKX6Ttl3wAnktyUxPx-5" edge="1">
          <mxGeometry width="50" height="50" relative="1" as="geometry">
            <mxPoint x="186" y="484" as="sourcePoint" />
            <mxPoint x="186" y="324" as="targetPoint" />
          </mxGeometry>
        </mxCell>
        <mxCell id="fG_CdD1IKfEeDCYnEVIt-46" value="" style="endArrow=classic;html=1;rounded=0;labelBackgroundColor=default;hachureGap=4;strokeColor=#6c8ebf;align=center;verticalAlign=middle;fontFamily=Architects Daughter;fontSource=https%3A%2F%2Ffonts.googleapis.com%2Fcss%3Ffamily%3DArchitects%2BDaughter;fontSize=16;fontColor=default;shape=connector;fillColor=#dae8fc;strokeWidth=1;sketch=1;curveFitting=1;jiggle=2;entryX=0;entryY=0.5;entryDx=0;entryDy=0;entryPerimeter=0;" parent="fPEKX6Ttl3wAnktyUxPx-5" edge="1">
          <mxGeometry width="50" height="50" relative="1" as="geometry">
            <mxPoint x="186" y="483.71000000000004" as="sourcePoint" />
            <mxPoint x="322" y="483.78" as="targetPoint" />
          </mxGeometry>
        </mxCell>
        <mxCell id="fG_CdD1IKfEeDCYnEVIt-47" value="&lt;font data-font-src=&quot;https://fonts.googleapis.com/css?family=Architects+Daughter&quot; face=&quot;Architects Daughter&quot;&gt;ACL&lt;/font&gt;" style="rounded=1;whiteSpace=wrap;html=1;" parent="fPEKX6Ttl3wAnktyUxPx-5" vertex="1">
          <mxGeometry x="406" y="524" width="72" height="36" as="geometry" />
        </mxCell>
        <mxCell id="fG_CdD1IKfEeDCYnEVIt-48" value="" style="endArrow=classic;html=1;rounded=0;labelBackgroundColor=default;hachureGap=4;strokeColor=#6c8ebf;align=center;verticalAlign=middle;fontFamily=Architects Daughter;fontSource=https%3A%2F%2Ffonts.googleapis.com%2Fcss%3Ffamily%3DArchitects%2BDaughter;fontSize=16;fontColor=default;shape=connector;fillColor=#dae8fc;strokeWidth=2;sketch=1;curveFitting=1;jiggle=2;" parent="fPEKX6Ttl3wAnktyUxPx-5" edge="1">
          <mxGeometry width="50" height="50" relative="1" as="geometry">
            <mxPoint x="441.79999999999995" y="512" as="sourcePoint" />
            <mxPoint x="441.79999999999995" y="524" as="targetPoint" />
          </mxGeometry>
        </mxCell>
        <mxCell id="fG_CdD1IKfEeDCYnEVIt-50" value="&lt;font style=&quot;font-size: 16px;&quot; data-font-src=&quot;https://fonts.googleapis.com/css?family=Architects+Daughter&quot; face=&quot;Architects Daughter&quot;&gt;&lt;b&gt;Monolith&lt;/b&gt;&lt;/font&gt;" style="text;html=1;align=center;verticalAlign=middle;resizable=0;points=[];autosize=1;strokeColor=none;fillColor=none;" parent="fPEKX6Ttl3wAnktyUxPx-5" vertex="1">
          <mxGeometry x="402" y="608" width="80" height="32" as="geometry" />
        </mxCell>
        <mxCell id="fG_CdD1IKfEeDCYnEVIt-51" value="" style="endArrow=none;html=1;rounded=0;labelBackgroundColor=default;hachureGap=4;strokeColor=#6c8ebf;align=center;verticalAlign=middle;fontFamily=Architects Daughter;fontSource=https%3A%2F%2Ffonts.googleapis.com%2Fcss%3Ffamily%3DArchitects%2BDaughter;fontSize=16;fontColor=default;shape=connector;fillColor=#dae8fc;sketch=1;curveFitting=1;jiggle=2;dashed=1;" parent="fPEKX6Ttl3wAnktyUxPx-5" edge="1">
          <mxGeometry width="50" height="50" relative="1" as="geometry">
            <mxPoint x="60.410000000000025" y="550" as="sourcePoint" />
            <mxPoint x="61" y="380" as="targetPoint" />
          </mxGeometry>
        </mxCell>
        <mxCell id="fG_CdD1IKfEeDCYnEVIt-52" value="" style="endArrow=none;html=1;rounded=0;labelBackgroundColor=default;hachureGap=4;strokeColor=#6c8ebf;align=center;verticalAlign=middle;fontFamily=Architects Daughter;fontSource=https%3A%2F%2Ffonts.googleapis.com%2Fcss%3Ffamily%3DArchitects%2BDaughter;fontSize=16;fontColor=default;shape=connector;fillColor=#dae8fc;sketch=1;curveFitting=1;jiggle=2;dashed=1;entryX=0;entryY=0.671;entryDx=0;entryDy=0;entryPerimeter=0;" parent="fPEKX6Ttl3wAnktyUxPx-5" target="fG_CdD1IKfEeDCYnEVIt-47" edge="1">
          <mxGeometry width="50" height="50" relative="1" as="geometry">
            <mxPoint x="59" y="550" as="sourcePoint" />
            <mxPoint x="395" y="548" as="targetPoint" />
          </mxGeometry>
        </mxCell>
        <mxCell id="3ZUiRfeBu65SBtIsVTUF-1" value="&lt;font data-font-src=&quot;https://fonts.googleapis.com/css?family=Architects+Daughter&quot; face=&quot;Architects Daughter&quot;&gt;Api Gateway&lt;/font&gt;" style="text;html=1;align=center;verticalAlign=middle;resizable=0;points=[];autosize=1;strokeColor=none;fillColor=none;" parent="fPEKX6Ttl3wAnktyUxPx-5" vertex="1">
          <mxGeometry x="15" y="346" width="92" height="28" as="geometry" />
        </mxCell>
        <mxCell id="fG_CdD1IKfEeDCYnEVIt-1" value="AWS Cloud" style="points=[[0,0],[0.25,0],[0.5,0],[0.75,0],[1,0],[1,0.25],[1,0.5],[1,0.75],[1,1],[0.75,1],[0.5,1],[0.25,1],[0,1],[0,0.75],[0,0.5],[0,0.25]];outlineConnect=0;gradientColor=none;html=1;whiteSpace=wrap;fontSize=12;fontStyle=0;container=1;pointerEvents=0;collapsible=0;recursiveResize=0;shape=mxgraph.aws4.group;grIcon=mxgraph.aws4.group_aws_cloud_alt;strokeColor=#232F3E;fillColor=none;verticalAlign=top;align=left;spacingLeft=30;fontColor=#232F3E;dashed=0;hachureGap=4;fontFamily=Architects Daughter;fontSource=https%3A%2F%2Ffonts.googleapis.com%2Fcss%3Ffamily%3DArchitects%2BDaughter;" parent="1" vertex="1">
          <mxGeometry x="-664" y="-720" width="584" height="648" as="geometry" />
        </mxCell>
        <mxCell id="fG_CdD1IKfEeDCYnEVIt-2" value="" style="sketch=0;points=[[0,0,0],[0.25,0,0],[0.5,0,0],[0.75,0,0],[1,0,0],[0,1,0],[0.25,1,0],[0.5,1,0],[0.75,1,0],[1,1,0],[0,0.25,0],[0,0.5,0],[0,0.75,0],[1,0.25,0],[1,0.5,0],[1,0.75,0]];outlineConnect=0;fontColor=#232F3E;fillColor=#E7157B;strokeColor=#ffffff;dashed=0;verticalLabelPosition=bottom;verticalAlign=top;align=center;html=1;fontSize=12;fontStyle=0;aspect=fixed;shape=mxgraph.aws4.resourceIcon;resIcon=mxgraph.aws4.api_gateway;" parent="fG_CdD1IKfEeDCYnEVIt-1" vertex="1">
          <mxGeometry x="12" y="268" width="78" height="78" as="geometry" />
        </mxCell>
        <mxCell id="fG_CdD1IKfEeDCYnEVIt-4" value="" style="sketch=0;points=[[0,0,0],[0.25,0,0],[0.5,0,0],[0.75,0,0],[1,0,0],[0,1,0],[0.25,1,0],[0.5,1,0],[0.75,1,0],[1,1,0],[0,0.25,0],[0,0.5,0],[0,0.75,0],[1,0.25,0],[1,0.5,0],[1,0.75,0]];outlineConnect=0;fontColor=#232F3E;fillColor=#ED7100;strokeColor=#ffffff;dashed=0;verticalLabelPosition=bottom;verticalAlign=top;align=center;html=1;fontSize=12;fontStyle=0;aspect=fixed;shape=mxgraph.aws4.resourceIcon;resIcon=mxgraph.aws4.lambda;" parent="fG_CdD1IKfEeDCYnEVIt-1" vertex="1">
          <mxGeometry x="312" y="188" width="78" height="78" as="geometry" />
        </mxCell>
        <mxCell id="fG_CdD1IKfEeDCYnEVIt-3" value="" style="sketch=0;points=[[0,0,0],[0.25,0,0],[0.5,0,0],[0.75,0,0],[1,0,0],[0,1,0],[0.25,1,0],[0.5,1,0],[0.75,1,0],[1,1,0],[0,0.25,0],[0,0.5,0],[0,0.75,0],[1,0.25,0],[1,0.5,0],[1,0.75,0]];outlineConnect=0;fontColor=#232F3E;fillColor=#ED7100;strokeColor=#ffffff;dashed=0;verticalLabelPosition=bottom;verticalAlign=top;align=center;html=1;fontSize=12;fontStyle=0;aspect=fixed;shape=mxgraph.aws4.resourceIcon;resIcon=mxgraph.aws4.lambda;" parent="fG_CdD1IKfEeDCYnEVIt-1" vertex="1">
          <mxGeometry x="312" y="28" width="78" height="78" as="geometry" />
        </mxCell>
        <mxCell id="fG_CdD1IKfEeDCYnEVIt-5" value="" style="sketch=0;outlineConnect=0;fontColor=#232F3E;gradientColor=none;fillColor=#ED7100;strokeColor=none;dashed=0;verticalLabelPosition=bottom;verticalAlign=top;align=center;html=1;fontSize=12;fontStyle=0;aspect=fixed;pointerEvents=1;shape=mxgraph.aws4.instance2;" parent="fG_CdD1IKfEeDCYnEVIt-1" vertex="1">
          <mxGeometry x="312" y="360" width="240" height="240" as="geometry" />
        </mxCell>
        <mxCell id="fG_CdD1IKfEeDCYnEVIt-6" value="&lt;font style=&quot;font-size: 16px;&quot; data-font-src=&quot;https://fonts.googleapis.com/css?family=Architects+Daughter&quot; face=&quot;Architects Daughter&quot;&gt;&lt;b&gt;Monolith&lt;/b&gt;&lt;/font&gt;" style="text;html=1;align=center;verticalAlign=middle;resizable=0;points=[];autosize=1;strokeColor=none;fillColor=none;" parent="fG_CdD1IKfEeDCYnEVIt-1" vertex="1">
          <mxGeometry x="388" y="604" width="80" height="32" as="geometry" />
        </mxCell>
        <mxCell id="fG_CdD1IKfEeDCYnEVIt-9" value="&lt;font data-font-src=&quot;https://fonts.googleapis.com/css?family=Architects+Daughter&quot; face=&quot;Architects Daughter&quot;&gt;Api Gateway&lt;/font&gt;" style="text;html=1;align=center;verticalAlign=middle;resizable=0;points=[];autosize=1;strokeColor=none;fillColor=none;" parent="fG_CdD1IKfEeDCYnEVIt-1" vertex="1">
          <mxGeometry x="5" y="346" width="92" height="28" as="geometry" />
        </mxCell>
        <mxCell id="fG_CdD1IKfEeDCYnEVIt-11" value="&lt;font data-font-src=&quot;https://fonts.googleapis.com/css?family=Architects+Daughter&quot; face=&quot;Architects Daughter&quot;&gt;Data&lt;/font&gt;" style="rounded=1;whiteSpace=wrap;html=1;" parent="fG_CdD1IKfEeDCYnEVIt-1" vertex="1">
          <mxGeometry x="356" y="408" width="72" height="36" as="geometry" />
        </mxCell>
        <mxCell id="fG_CdD1IKfEeDCYnEVIt-12" value="&lt;font data-font-src=&quot;https://fonts.googleapis.com/css?family=Architects+Daughter&quot; face=&quot;Architects Daughter&quot;&gt;Lending&lt;/font&gt;" style="rounded=1;whiteSpace=wrap;html=1;" parent="fG_CdD1IKfEeDCYnEVIt-1" vertex="1">
          <mxGeometry x="440" y="408" width="72" height="36" as="geometry" />
        </mxCell>
        <mxCell id="fG_CdD1IKfEeDCYnEVIt-10" value="&lt;font color=&quot;#bababa&quot; data-font-src=&quot;https://fonts.googleapis.com/css?family=Architects+Daughter&quot; face=&quot;Architects Daughter&quot;&gt;Notifications&lt;/font&gt;" style="rounded=1;whiteSpace=wrap;html=1;fillColor=#f5f5f5;fontColor=#333333;strokeColor=#666666;" parent="fG_CdD1IKfEeDCYnEVIt-1" vertex="1">
          <mxGeometry x="376" y="476" width="116" height="36" as="geometry" />
        </mxCell>
        <mxCell id="fG_CdD1IKfEeDCYnEVIt-8" value="" style="endArrow=none;html=1;rounded=0;labelBackgroundColor=default;hachureGap=4;strokeColor=#6c8ebf;align=center;verticalAlign=middle;fontFamily=Architects Daughter;fontSource=https%3A%2F%2Ffonts.googleapis.com%2Fcss%3Ffamily%3DArchitects%2BDaughter;fontSize=16;fontColor=default;shape=connector;fillColor=#dae8fc;sketch=1;curveFitting=1;jiggle=2;" parent="fG_CdD1IKfEeDCYnEVIt-1" edge="1">
          <mxGeometry width="50" height="50" relative="1" as="geometry">
            <mxPoint x="390" y="464" as="sourcePoint" />
            <mxPoint x="476" y="464" as="targetPoint" />
          </mxGeometry>
        </mxCell>
        <mxCell id="fG_CdD1IKfEeDCYnEVIt-14" value="" style="endArrow=none;html=1;rounded=0;labelBackgroundColor=default;hachureGap=4;strokeColor=#6c8ebf;align=center;verticalAlign=middle;fontFamily=Architects Daughter;fontSource=https%3A%2F%2Ffonts.googleapis.com%2Fcss%3Ffamily%3DArchitects%2BDaughter;fontSize=16;fontColor=default;shape=connector;fillColor=#dae8fc;sketch=1;curveFitting=1;jiggle=2;" parent="fG_CdD1IKfEeDCYnEVIt-1" edge="1">
          <mxGeometry width="50" height="50" relative="1" as="geometry">
            <mxPoint x="475.76" y="448" as="sourcePoint" />
            <mxPoint x="475.76" y="464" as="targetPoint" />
          </mxGeometry>
        </mxCell>
        <mxCell id="fG_CdD1IKfEeDCYnEVIt-13" value="" style="endArrow=none;html=1;rounded=0;labelBackgroundColor=default;hachureGap=4;strokeColor=#6c8ebf;align=center;verticalAlign=middle;fontFamily=Architects Daughter;fontSource=https%3A%2F%2Ffonts.googleapis.com%2Fcss%3Ffamily%3DArchitects%2BDaughter;fontSize=16;fontColor=default;shape=connector;fillColor=#dae8fc;sketch=1;curveFitting=1;jiggle=2;" parent="fG_CdD1IKfEeDCYnEVIt-1" edge="1">
          <mxGeometry width="50" height="50" relative="1" as="geometry">
            <mxPoint x="391.76" y="448" as="sourcePoint" />
            <mxPoint x="391.76" y="464" as="targetPoint" />
          </mxGeometry>
        </mxCell>
        <mxCell id="fG_CdD1IKfEeDCYnEVIt-15" value="" style="endArrow=classic;html=1;rounded=0;labelBackgroundColor=default;hachureGap=4;strokeColor=#6c8ebf;align=center;verticalAlign=middle;fontFamily=Architects Daughter;fontSource=https%3A%2F%2Ffonts.googleapis.com%2Fcss%3Ffamily%3DArchitects%2BDaughter;fontSize=16;fontColor=default;shape=connector;fillColor=#dae8fc;strokeWidth=2;sketch=1;curveFitting=1;jiggle=2;" parent="fG_CdD1IKfEeDCYnEVIt-1" edge="1">
          <mxGeometry width="50" height="50" relative="1" as="geometry">
            <mxPoint x="431.76" y="464" as="sourcePoint" />
            <mxPoint x="431.76" y="476" as="targetPoint" />
          </mxGeometry>
        </mxCell>
        <mxCell id="fG_CdD1IKfEeDCYnEVIt-16" value="" style="endArrow=none;html=1;rounded=0;labelBackgroundColor=default;hachureGap=4;strokeColor=#6c8ebf;align=center;verticalAlign=middle;fontFamily=Architects Daughter;fontSource=https%3A%2F%2Ffonts.googleapis.com%2Fcss%3Ffamily%3DArchitects%2BDaughter;fontSize=16;fontColor=default;shape=connector;fillColor=#dae8fc;sketch=1;curveFitting=1;jiggle=2;" parent="fG_CdD1IKfEeDCYnEVIt-1" edge="1">
          <mxGeometry width="50" height="50" relative="1" as="geometry">
            <mxPoint x="90" y="296" as="sourcePoint" />
            <mxPoint x="176" y="296" as="targetPoint" />
          </mxGeometry>
        </mxCell>
        <mxCell id="fG_CdD1IKfEeDCYnEVIt-18" value="" style="endArrow=none;html=1;rounded=0;labelBackgroundColor=default;hachureGap=4;strokeColor=#6c8ebf;align=center;verticalAlign=middle;fontFamily=Architects Daughter;fontSource=https%3A%2F%2Ffonts.googleapis.com%2Fcss%3Ffamily%3DArchitects%2BDaughter;fontSize=16;fontColor=default;shape=connector;fillColor=#dae8fc;sketch=1;curveFitting=1;jiggle=2;" parent="fG_CdD1IKfEeDCYnEVIt-1" edge="1">
          <mxGeometry width="50" height="50" relative="1" as="geometry">
            <mxPoint x="176" y="296" as="sourcePoint" />
            <mxPoint x="176" y="228" as="targetPoint" />
          </mxGeometry>
        </mxCell>
        <mxCell id="fG_CdD1IKfEeDCYnEVIt-7" value="" style="endArrow=classic;html=1;rounded=0;labelBackgroundColor=default;hachureGap=4;strokeColor=#6c8ebf;align=center;verticalAlign=middle;fontFamily=Architects Daughter;fontSource=https%3A%2F%2Ffonts.googleapis.com%2Fcss%3Ffamily%3DArchitects%2BDaughter;fontSize=16;fontColor=default;shape=connector;fillColor=#dae8fc;strokeWidth=1;sketch=1;curveFitting=1;jiggle=2;entryX=0;entryY=0.5;entryDx=0;entryDy=0;entryPerimeter=0;" parent="fG_CdD1IKfEeDCYnEVIt-1" target="fG_CdD1IKfEeDCYnEVIt-4" edge="1">
          <mxGeometry width="50" height="50" relative="1" as="geometry">
            <mxPoint x="176" y="226.93" as="sourcePoint" />
            <mxPoint x="297.65999999999997" y="226.5" as="targetPoint" />
          </mxGeometry>
        </mxCell>
        <mxCell id="fG_CdD1IKfEeDCYnEVIt-19" value="" style="endArrow=none;html=1;rounded=0;labelBackgroundColor=default;hachureGap=4;strokeColor=#6c8ebf;align=center;verticalAlign=middle;fontFamily=Architects Daughter;fontSource=https%3A%2F%2Ffonts.googleapis.com%2Fcss%3Ffamily%3DArchitects%2BDaughter;fontSize=16;fontColor=default;shape=connector;fillColor=#dae8fc;sketch=1;curveFitting=1;jiggle=2;dashed=1;" parent="fG_CdD1IKfEeDCYnEVIt-1" edge="1">
          <mxGeometry width="50" height="50" relative="1" as="geometry">
            <mxPoint x="50.710000000000036" y="266" as="sourcePoint" />
            <mxPoint x="51" y="68" as="targetPoint" />
          </mxGeometry>
        </mxCell>
        <mxCell id="fG_CdD1IKfEeDCYnEVIt-20" value="" style="endArrow=classic;html=1;rounded=0;labelBackgroundColor=default;hachureGap=4;strokeColor=#6c8ebf;align=center;verticalAlign=middle;fontFamily=Architects Daughter;fontSource=https%3A%2F%2Ffonts.googleapis.com%2Fcss%3Ffamily%3DArchitects%2BDaughter;fontSize=16;fontColor=default;shape=connector;fillColor=#dae8fc;strokeWidth=1;sketch=1;curveFitting=1;jiggle=2;dashed=1;" parent="fG_CdD1IKfEeDCYnEVIt-1" edge="1">
          <mxGeometry width="50" height="50" relative="1" as="geometry">
            <mxPoint x="52" y="66.83000000000004" as="sourcePoint" />
            <mxPoint x="312" y="66.83000000000004" as="targetPoint" />
          </mxGeometry>
        </mxCell>
        <mxCell id="fG_CdD1IKfEeDCYnEVIt-21" value="&lt;font face=&quot;Architects Daughter&quot;&gt;Notifications&lt;/font&gt;" style="text;html=1;align=center;verticalAlign=middle;resizable=0;points=[];autosize=1;strokeColor=none;fillColor=none;" parent="fG_CdD1IKfEeDCYnEVIt-1" vertex="1">
          <mxGeometry x="305" y="104" width="92" height="28" as="geometry" />
        </mxCell>
        <mxCell id="fG_CdD1IKfEeDCYnEVIt-22" value="&lt;font face=&quot;Architects Daughter&quot;&gt;/Payments&lt;/font&gt;" style="text;html=1;align=center;verticalAlign=middle;resizable=0;points=[];autosize=1;strokeColor=none;fillColor=none;" parent="fG_CdD1IKfEeDCYnEVIt-1" vertex="1">
          <mxGeometry x="312" y="268" width="80" height="28" as="geometry" />
        </mxCell>
        <mxCell id="fG_CdD1IKfEeDCYnEVIt-23" value="" style="endArrow=none;html=1;rounded=0;labelBackgroundColor=default;hachureGap=4;strokeColor=#6c8ebf;align=center;verticalAlign=middle;fontFamily=Architects Daughter;fontSource=https%3A%2F%2Ffonts.googleapis.com%2Fcss%3Ffamily%3DArchitects%2BDaughter;fontSize=16;fontColor=default;shape=connector;fillColor=#dae8fc;sketch=1;curveFitting=1;jiggle=2;" parent="fG_CdD1IKfEeDCYnEVIt-1" edge="1">
          <mxGeometry width="50" height="50" relative="1" as="geometry">
            <mxPoint x="90" y="320" as="sourcePoint" />
            <mxPoint x="176" y="320" as="targetPoint" />
          </mxGeometry>
        </mxCell>
        <mxCell id="fG_CdD1IKfEeDCYnEVIt-24" value="" style="endArrow=none;html=1;rounded=0;labelBackgroundColor=default;hachureGap=4;strokeColor=#6c8ebf;align=center;verticalAlign=middle;fontFamily=Architects Daughter;fontSource=https%3A%2F%2Ffonts.googleapis.com%2Fcss%3Ffamily%3DArchitects%2BDaughter;fontSize=16;fontColor=default;shape=connector;fillColor=#dae8fc;sketch=1;curveFitting=1;jiggle=2;" parent="fG_CdD1IKfEeDCYnEVIt-1" edge="1">
          <mxGeometry width="50" height="50" relative="1" as="geometry">
            <mxPoint x="176" y="480" as="sourcePoint" />
            <mxPoint x="176" y="320" as="targetPoint" />
          </mxGeometry>
        </mxCell>
        <mxCell id="fG_CdD1IKfEeDCYnEVIt-25" value="" style="endArrow=classic;html=1;rounded=0;labelBackgroundColor=default;hachureGap=4;strokeColor=#6c8ebf;align=center;verticalAlign=middle;fontFamily=Architects Daughter;fontSource=https%3A%2F%2Ffonts.googleapis.com%2Fcss%3Ffamily%3DArchitects%2BDaughter;fontSize=16;fontColor=default;shape=connector;fillColor=#dae8fc;strokeWidth=1;sketch=1;curveFitting=1;jiggle=2;entryX=0;entryY=0.5;entryDx=0;entryDy=0;entryPerimeter=0;" parent="fG_CdD1IKfEeDCYnEVIt-1" edge="1">
          <mxGeometry width="50" height="50" relative="1" as="geometry">
            <mxPoint x="176" y="479.71000000000004" as="sourcePoint" />
            <mxPoint x="312" y="479.78" as="targetPoint" />
          </mxGeometry>
        </mxCell>
      </root>
    </mxGraphModel>
  </diagram>
</mxfile>
